<?xml version="1.0" encoding="utf-8"?><svg viewBox="0 0 1706.667 1706.667" xmlns="http://www.w3.org/2000/svg" xmlns:xlink="http://www.w3.org/1999/xlink"><style>:root>svg{display:none}:root>svg:target{display:block}</style><svg version="1.0" viewBox="0 0 1280 1280" id="1586558" xmlns="http://www.w3.org/2000/svg"><path d="M385.7 84.7c-.4.3-.7 134-.7 297V678H245c-77 0-140 .3-139.9.7 0 .5 59.5 41.8 132.2 91.9 72.7 50.1 192.5 132.7 266.1 183.5l133.9 92.4-270.2.3-270.1.2v124h1080v-124l-266.1-.2-266.1-.3 95.8-66.1c297-204.9 355.9-245.6 394.2-271.9 23.1-16 42.1-29.3 42.2-29.8 0-.4-63-.7-140-.7H897V84H641.7c-140.5 0-255.7.3-256 .7z"/></svg></svg>